<?xml version="1.0" standalone="no"?>
<!DOCTYPE svg PUBLIC "-//W3C//DTD SVG 20010904//EN"
 "http://www.w3.org/TR/2001/REC-SVG-20010904/DTD/svg10.dtd">
<svg version="1.0" xmlns="http://www.w3.org/2000/svg"
 width="580.000000pt" height="387.000000pt" viewBox="0 0 580.000000 387.000000"
 preserveAspectRatio="xMidYMid meet">

<g transform="translate(0.000000,387.000000) scale(0.100000,-0.100000)"
fill="#000000" stroke="none">
<path d="M0 1935 l0 -1935 2900 0 2900 0 0 1935 0 1935 -2900 0 -2900 0 0
-1935z m2635 974 c129 -24 231 -104 277 -218 22 -54 23 -68 26 -418 l3 -362
-77 -133 c-42 -73 -116 -200 -164 -283 -243 -422 -285 -493 -288 -491 -1 2 22
59 51 127 30 68 57 134 61 147 l7 22 -325 0 c-282 0 -327 2 -340 16 -14 14
-16 100 -16 794 0 694 2 780 16 794 13 14 60 16 363 16 208 0 371 -4 406 -11z
m705 -478 c-38 -89 -70 -169 -70 -177 0 -8 80 -164 178 -347 l177 -332 5 488
c4 419 7 489 20 497 8 5 71 10 139 10 102 0 128 -3 143 -17 17 -15 18 -53 18
-791 0 -708 -1 -777 -17 -794 -14 -15 -32 -18 -134 -18 -108 0 -120 2 -143 22
-21 20 -134 225 -452 821 l-79 149 -5 -480 c-4 -386 -8 -482 -19 -495 -20 -24
-262 -25 -285 -1 -14 13 -16 55 -16 302 l0 287 302 522 c166 287 304 521 305
519 2 -1 -28 -76 -67 -165z"/>
<path d="M2175 2628 c-3 -7 -4 -245 -3 -528 l3 -515 192 0 193 0 27 28 28 27
0 470 0 470 -28 27 -27 28 -190 3 c-150 3 -191 0 -195 -10z"/>
</g>
</svg>
